<?xml version="1.0" encoding="UTF-8"?>
<svg width="94px" height="98px" viewBox="0 0 94 98" version="1.1" xmlns="http://www.w3.org/2000/svg" xmlns:xlink="http://www.w3.org/1999/xlink">
    <!-- Generator: Sketch 49.3 (51167) - http://www.bohemiancoding.com/sketch -->
    <title>voteArrow</title>
    <desc>Created with Sketch.</desc>
    <defs></defs>
    <g id="Page-1" stroke="none" stroke-width="1" fill="none" fill-rule="evenodd">
        <g id="Artboard" transform="translate(-3.000000, -1.000000)" fill="#000000">
            <path d="M29.7071068,74.7071068 L20.2928932,65.2928932 C20.1053568,65.1053568 19.8510029,65 19.5857864,65 L6.03640755,65 C4.3795533,65 3.03640755,63.6568542 3.03640755,62 C3.03640755,61.3459303 3.25016609,60.7097808 3.64513111,60.1884269 L47.6087236,2.15648491 C48.6092277,0.835819394 50.4909076,0.57627735 51.8115731,1.57678153 C52.0304245,1.7425781 52.2254799,1.93763342 52.3912764,2.15648491 L96.3548689,60.1884269 C97.3553731,61.5090924 97.095831,63.3907723 95.7751655,64.3912764 C95.2538117,64.7862415 94.6176622,65 93.9635924,65 L80.4142136,65 C80.1489971,65 79.8946432,65.1053568 79.7071068,65.2928932 L70.2928932,74.7071068 C70.1053568,74.8946432 70,75.1489971 70,75.4142136 L70,88.5857864 C70,88.8510029 69.8946432,89.1053568 69.7071068,89.2928932 L60.2928932,98.7071068 C60.1053568,98.8946432 59.8510029,99 59.5857864,99 L40.4142136,99 C40.1489971,99 39.8946432,98.8946432 39.7071068,98.7071068 L30.2928932,89.2928932 C30.1053568,89.1053568 30,88.8510029 30,88.5857864 L30,75.4142136 C30,75.1489971 29.8946432,74.8946432 29.7071068,74.7071068 Z" id="voteArrow"></path>
        </g>
    </g>
</svg>